<svg width="24" height="24" viewBox="0 0 24 24" fill="none" xmlns="http://www.w3.org/2000/svg">
<g clip-path="url(#clip0_764_1167)">
<path d="M21.4811 0.55575H2.22184C1.78486 0.551302 1.36397 0.720387 1.05151 1.0259C0.739048 1.33142 0.560548 1.74841 0.555176 2.18538V21.5224C0.56152 21.9587 0.740446 22.3748 1.0528 22.6795C1.36515 22.9842 1.7855 23.1528 2.22184 23.1483H21.4811C21.9181 23.1518 22.3387 22.9822 22.651 22.6764C22.9633 22.3707 23.1419 21.9538 23.1478 21.5169V2.17982C23.14 1.74414 22.9605 1.32913 22.6484 1.02502C22.3364 0.720906 21.9168 0.552264 21.4811 0.55575Z" fill="#0076B2"/>
<path d="M3.89997 9.02418H7.25367V19.8149H3.89997V9.02418ZM5.57775 3.65381C5.9624 3.65381 6.33841 3.7679 6.65821 3.98164C6.97802 4.19538 7.22724 4.49917 7.37435 4.85457C7.52147 5.20998 7.55987 5.60104 7.48469 5.97828C7.40951 6.35551 7.22414 6.70198 6.95202 6.97384C6.6799 7.2457 6.33326 7.43074 5.95595 7.50556C5.57864 7.58038 5.18762 7.54161 4.83236 7.39415C4.47709 7.2467 4.17353 6.99719 3.9601 6.67718C3.74666 6.35717 3.63294 5.98105 3.6333 5.5964C3.63379 5.08102 3.83887 4.58692 4.20347 4.22267C4.56807 3.85841 5.06237 3.65381 5.57775 3.65381ZM9.35737 9.02418H12.5722V10.5057H12.6166C13.0648 9.65751 14.1574 8.76307 15.7889 8.76307C19.1852 8.75566 19.8148 10.9908 19.8148 13.889V19.8149H16.4611V14.5649C16.4611 13.3149 16.4389 11.7057 14.7185 11.7057C12.9981 11.7057 12.7055 13.0686 12.7055 14.4834V19.8149H9.35737V9.02418Z" fill="white"/>
</g>
<defs>
<clipPath id="clip0_764_1167">
<rect width="23.7037" height="23.7037" fill="white"/>
</clipPath>
</defs>
</svg>
