<svg width="24" height="24" viewBox="0 0 24 24" fill="none" xmlns="http://www.w3.org/2000/svg">
<g clip-path="url(#clip0_764_1172)">
<path d="M20.6018 0.399902H3.10175C1.60956 0.399902 0.399902 1.60956 0.399902 3.10175V20.5999C0.399902 22.0921 1.60956 23.3018 3.10175 23.3018H20.6018C22.0939 23.3018 23.3036 22.0921 23.3036 20.5999V3.10175C23.3036 1.60956 22.0939 0.399902 20.6018 0.399902Z" fill="url(#paint0_linear_764_1172)"/>
<path d="M9.74631 11.1633C9.74631 11.1633 11.6908 11.0189 11.6908 8.73927C11.6908 6.45964 10.1 5.34668 8.0852 5.34668H1.45557V18.0874H8.0852C8.0852 18.0874 12.1315 18.2152 12.1315 14.3263C12.1315 14.3263 12.3093 11.1633 9.74631 11.1633ZM4.37594 7.61149H8.07964C8.07964 7.61149 8.98149 7.61149 8.98149 8.93742C8.98149 10.2633 8.45186 10.4559 7.85001 10.4559H4.37779L4.37594 7.61149ZM7.91297 15.8226H4.37779V12.4189H8.08149C8.08149 12.4189 9.42409 12.4004 9.42409 14.1689C9.42779 15.6411 8.44631 15.8078 7.91483 15.8226H7.91297ZM17.5296 8.58927C12.6296 8.58927 12.6352 13.4837 12.6352 13.4837C12.6352 13.4837 12.2982 18.3541 17.5296 18.3541C17.5296 18.3541 21.8889 18.6022 21.8889 14.967H19.6482C19.6482 14.967 19.7222 16.3374 17.6111 16.3374C17.6111 16.3374 15.3685 16.4874 15.3685 14.1152H21.9704C21.9704 14.1152 22.687 8.58927 17.5296 8.58927ZM19.5222 12.4189H15.337C15.337 12.4189 15.6111 10.4559 17.5796 10.4559C19.5482 10.4559 19.5222 12.4189 19.5222 12.4189ZM14.7889 6.09853H20.0445V7.66705H14.7889V6.09853Z" fill="white"/>
</g>
<defs>
<linearGradient id="paint0_linear_764_1172" x1="11.8518" y1="0.399902" x2="11.8518" y2="23.3036" gradientUnits="userSpaceOnUse">
<stop stop-color="#005CFF"/>
<stop offset="1" stop-color="#0047AD"/>
</linearGradient>
<clipPath id="clip0_764_1172">
<rect width="23.7037" height="23.7037" fill="white"/>
</clipPath>
</defs>
</svg>
