<svg width="32" height="32" viewBox="0 0 32 32" fill="none" xmlns="http://www.w3.org/2000/svg">
<path d="M16.0001 22.6665C15.6597 22.6648 15.324 22.5873 15.0172 22.4397C14.7105 22.2921 14.4405 22.0781 14.2268 21.8132L8.61343 15.0132C8.28542 14.6038 8.07901 14.1105 8.01772 13.5895C7.95642 13.0685 8.04272 12.5408 8.26676 12.0665C8.44846 11.6543 8.74499 11.3031 9.12092 11.0548C9.49685 10.8065 9.93629 10.6717 10.3868 10.6665H21.6134C22.0639 10.6717 22.5033 10.8065 22.8793 11.0548C23.2552 11.3031 23.5517 11.6543 23.7334 12.0665C23.9575 12.5408 24.0438 13.0685 23.9825 13.5895C23.9212 14.1105 23.7148 14.6038 23.3868 15.0132L17.7734 21.8132C17.5597 22.0781 17.2897 22.2921 16.9829 22.4397C16.6762 22.5873 16.3405 22.6648 16.0001 22.6665Z" fill="black"/>
</svg>
