<svg width="24" height="24" viewBox="0 0 24 24" fill="none" xmlns="http://www.w3.org/2000/svg">
<path d="M7.125 5.25C6.09 5.25 5.25 6.09 5.25 7.125V16.875C5.25 17.91 6.09 18.75 7.125 18.75H16.875C17.91 18.75 18.75 17.91 18.75 16.875V14.625C18.75 14.3266 18.8685 14.0405 19.0795 13.8295C19.2905 13.6185 19.5766 13.5 19.875 13.5C20.1734 13.5 20.4595 13.6185 20.6705 13.8295C20.8815 14.0405 21 14.3266 21 14.625V16.875C21 17.969 20.5654 19.0182 19.7918 19.7918C19.0182 20.5654 17.969 21 16.875 21H7.125C6.03098 21 4.98177 20.5654 4.20818 19.7918C3.4346 19.0182 3 17.969 3 16.875V7.125C3 6.03098 3.4346 4.98177 4.20818 4.20818C4.98177 3.4346 6.03098 3 7.125 3H9.375C9.67337 3 9.95952 3.11853 10.1705 3.3295C10.3815 3.54048 10.5 3.82663 10.5 4.125C10.5 4.42337 10.3815 4.70952 10.1705 4.9205C9.95952 5.13147 9.67337 5.25 9.375 5.25H7.125ZM12 4.125C12 3.82663 12.1185 3.54048 12.3295 3.3295C12.5405 3.11853 12.8266 3 13.125 3H19.875C20.1734 3 20.4595 3.11853 20.6705 3.3295C20.8815 3.54048 21 3.82663 21 4.125V10.875C21 11.1734 20.8815 11.4595 20.6705 11.6705C20.4595 11.8815 20.1734 12 19.875 12C19.5766 12 19.2905 11.8815 19.0795 11.6705C18.8685 11.4595 18.75 11.1734 18.75 10.875V6.8415L13.92 11.6715C13.8162 11.7789 13.692 11.8645 13.5547 11.9234C13.4174 11.9823 13.2698 12.0133 13.1204 12.0145C12.971 12.0158 12.8229 11.9872 12.6847 11.9306C12.5465 11.874 12.4209 11.7904 12.3153 11.6847C12.2097 11.579 12.1262 11.4534 12.0697 11.3151C12.0132 11.1768 11.9849 11.0286 11.9862 10.8793C11.9876 10.7299 12.0187 10.5823 12.0777 10.4451C12.1367 10.3078 12.2225 10.1837 12.33 10.08L17.16 5.25H13.125C12.8266 5.25 12.5405 5.13147 12.3295 4.9205C12.1185 4.70952 12 4.42337 12 4.125Z" fill="white"/>
</svg>
