<svg width="158" height="154" viewBox="0 0 158 154" fill="none" xmlns="http://www.w3.org/2000/svg">
<g clip-path="url(#clip0_754_312)">
<path d="M13.916 62.3432C7.63159 72.5502 11.4034 88.9085 21.59 96.7562C22.525 97.4698 23.4599 98.1835 24.4005 98.9014C24.4005 98.9014 24.4005 98.9014 24.4062 98.9058C25.946 100.695 28.359 100.985 30.2995 101.87C39.0927 105.894 48.1548 106.622 57.0267 101.854C58.1967 101.231 59.0859 100.918 60.2751 101.582C70.4434 107.196 81.3995 107.511 92.4658 105.826C106.887 103.634 119.982 97.8498 132.205 90.0281C136.041 87.5791 139.723 84.8949 143.475 82.3189C143.284 83.5265 142.635 84.33 142.241 85.2476C141.712 86.4853 141.439 87.8471 143.019 88.602C144.375 89.249 145.708 88.9676 146.42 87.6339C148.923 82.913 151.418 78.1776 153.695 73.3386C154.385 71.8799 153.994 69.5787 152.01 69.8961C146.005 70.8609 139.978 71.89 134.198 74.0371C132.423 74.6948 132.377 75.9137 132.586 76.9396C132.926 78.6336 134.447 78.4141 135.789 78.0755C136.829 77.8232 137.866 77.4691 138.924 77.3834C139.844 77.3008 140.771 76.4652 141.842 77.355C127.266 88.9565 111.167 97.4367 92.9549 101.084C82.7649 103.122 72.4135 102.7 62.7988 97.4362C67.1709 90.8219 69.491 84.13 64.7032 76.8214C63.4351 74.9603 61.8434 73.5468 59.599 72.9885C59.599 72.9885 59.599 72.9885 59.6047 72.9929C59.6047 72.9929 59.6047 72.9929 59.599 72.9885C54.2593 72.2419 49.8328 74.4478 48.3324 79.3566C46.4883 85.4013 48.1342 90.9161 52.5948 95.3675C54.8578 97.6272 54.1354 98.4201 51.5084 99.1667C41.8605 101.889 33.171 99.515 25.328 93.8803C15.4734 86.7913 12.8122 75.3137 18.1773 64.5853C18.9754 62.9841 19.0931 61.4589 17.4743 60.5301C15.6329 59.4674 14.7901 60.9262 13.916 62.3432ZM52.6148 86.5591C51.4501 84.0189 51.7769 81.4986 53.7964 79.3139C56.4383 76.4674 59.7898 76.8874 61.5703 80.3938C63.3183 83.8482 62.7758 87.2776 61.3013 90.6632C60.8317 91.7394 60.2549 92.7787 59.731 93.8314L59.5441 93.8872L59.5396 94.0823C55.1943 93.4631 54.0781 89.7601 52.6148 86.5591Z" fill="#131311"/>
</g>
<defs>
<clipPath id="clip0_754_312">
<rect width="120.808" height="101.172" fill="white" transform="translate(96.0298 153.721) rotate(-142.645)"/>
</clipPath>
</defs>
</svg>
