<svg width="167" height="127" viewBox="0 0 167 127" fill="none" xmlns="http://www.w3.org/2000/svg">
<g clip-path="url(#clip0_754_316)">
<path d="M145.758 63.4139C143.418 64.0685 141.097 64.784 138.748 65.3495C136.965 65.779 135.366 65.5077 134.815 63.4001C134.344 61.5588 135.447 60.4719 136.963 59.983C145.194 57.2951 153.411 54.5591 161.724 52.1598C164.822 51.2608 166.454 53.4835 165.421 56.172C162.116 64.6937 158.429 73.0684 154.764 81.4409C154.146 82.8534 152.722 83.8277 151.048 83.1953C149.087 82.4425 148.936 80.6598 149.53 79.0025C151.148 74.4821 152.934 70.0263 154.652 65.5547C153.195 65.4987 152.202 67.0242 150.921 67.9036C128.84 83.0328 105.078 93.639 77.8857 94.851C50.3928 96.0653 26.689 86.5766 5.96265 68.9439C4.29196 67.5204 2.16959 65.934 4.19163 63.6255C6.21367 61.3169 8.17037 63.2788 9.7678 64.6422C22.4136 75.4224 36.8261 82.8854 52.9591 86.6494C78.8474 92.6816 103.174 87.1877 126.496 75.6627C133.291 72.3057 140.013 68.7491 145.741 63.429L145.758 63.4139Z" fill="black"/>
</g>
<defs>
<clipPath id="clip0_754_316">
<rect width="148.09" height="79.1" fill="white" transform="translate(138.246 126.933) rotate(-158.991)"/>
</clipPath>
</defs>
</svg>
