<svg width="152" height="143" viewBox="0 0 152 143" fill="none" xmlns="http://www.w3.org/2000/svg">
<g clip-path="url(#clip0_754_310)">
<path d="M9.5958 71.0617C5.7123 59.7217 12.9923 44.5949 24.6566 39.1819C25.7256 38.6916 26.7947 38.2012 27.8703 37.7079C27.8703 37.7079 27.8703 37.7079 27.8768 37.7049C29.7726 36.2989 32.1903 36.5471 34.2781 36.1103C43.7413 34.1212 52.7413 35.4059 60.3462 42.0093C61.3505 42.8742 62.1487 43.376 63.455 42.9899C74.6097 39.7516 85.3664 41.856 95.7904 45.9356C109.376 51.2479 120.876 59.773 131.077 70.0932C134.28 73.3266 137.281 76.7554 140.375 80.0942C140.454 78.8742 139.997 77.9475 139.816 76.9658C139.571 75.6418 139.605 74.2534 141.313 73.8648C142.777 73.5322 144.016 74.1001 144.417 75.5577C145.819 80.7138 147.211 85.8823 148.367 91.1039C148.719 92.6786 147.831 94.8373 145.966 94.0911C140.32 91.8281 134.667 89.4975 129.501 86.1307C127.915 85.0986 128.139 83.8994 128.569 82.9448C129.273 81.3671 130.708 81.916 131.942 82.5416C132.902 83.0167 133.836 83.5904 134.849 83.9069C135.728 84.19 136.448 85.209 137.689 84.5769C126.024 70.0516 112.186 58.2356 95.2236 50.6692C85.7322 46.4381 75.5419 44.571 65.0043 47.5894C67.8132 55.0038 68.6034 62.0423 62.3242 68.1178C60.6776 69.6541 58.8139 70.6825 56.5016 70.7331C56.5016 70.7331 56.5016 70.7331 56.5081 70.7301C56.5081 70.7301 56.5081 70.7301 56.5016 70.7331C51.1285 70.286 47.2961 67.1598 46.9131 62.0412C46.4447 55.7388 49.2642 50.7216 54.5952 47.3612C57.3001 45.6551 56.7699 44.7226 54.3717 43.4161C45.5598 38.6366 36.5607 39.0399 27.6698 42.8101C16.4965 47.556 11.3741 58.1663 14.2461 69.8125C14.6722 71.5501 14.4512 73.0638 12.6677 73.6136C10.6376 74.2449 10.1365 72.6363 9.5958 71.0617ZM52.6759 55.958C50.9805 58.1795 50.7446 60.71 52.2337 63.2856C54.1842 66.6438 57.5459 66.9718 60.0546 63.9434C62.5201 60.9584 62.7457 57.4937 62.0526 53.8666C61.8315 52.7135 61.4976 51.5727 61.2183 50.4304L61.0482 50.3349L61.0867 50.1436C56.7117 49.7911 54.8078 53.1576 52.6759 55.958Z" fill="#131311"/>
</g>
<defs>
<clipPath id="clip0_754_310">
<rect width="120.808" height="101.172" fill="white" transform="matrix(-0.908955 0.416895 0.416895 0.908955 109.809 0)"/>
</clipPath>
</defs>
</svg>
