<svg width="167" height="127" viewBox="0 0 167 127" fill="none" xmlns="http://www.w3.org/2000/svg">
<g clip-path="url(#clip0_754_314)">
<path d="M145.758 63.5194C143.418 62.8649 141.097 62.1493 138.748 61.5838C136.965 61.1543 135.366 61.4256 134.815 63.5333C134.344 65.3746 135.447 66.4614 136.963 66.9504C145.194 69.6383 153.411 72.3743 161.724 74.7736C164.822 75.6726 166.454 73.4499 165.421 70.7613C162.116 62.2397 158.429 53.865 154.764 45.4924C154.146 44.0799 152.722 43.1056 151.048 43.738C149.087 44.4909 148.936 46.2735 149.53 47.9309C151.148 52.4512 152.934 56.9071 154.652 61.3786C153.195 61.4346 152.202 59.9092 150.921 59.0298C128.84 43.9006 105.078 33.2944 77.8857 32.0823C50.3928 30.868 26.689 40.3568 5.96265 57.9894C4.29196 59.413 2.16959 60.9993 4.19163 63.3079C6.21367 65.6164 8.17037 63.6545 9.7678 62.2912C22.4136 51.511 36.8261 44.0479 52.9591 40.2839C78.8474 34.2518 103.174 39.7457 126.496 51.2706C133.291 54.6277 140.013 58.1842 145.741 63.5043L145.758 63.5194Z" fill="black"/>
</g>
<defs>
<clipPath id="clip0_754_314">
<rect width="148.09" height="79.1" fill="white" transform="matrix(-0.933527 0.358507 0.358507 0.933527 138.246 0)"/>
</clipPath>
</defs>
</svg>
