<svg width="24" height="24" viewBox="0 0 24 24" fill="none" xmlns="http://www.w3.org/2000/svg">
<g clip-path="url(#clip0_764_1160)">
<path d="M18.1481 0H5.55556C2.48731 0 0 2.48731 0 5.55556V18.1481C0 21.2164 2.48731 23.7037 5.55556 23.7037H18.1481C21.2164 23.7037 23.7037 21.2164 23.7037 18.1481V5.55556C23.7037 2.48731 21.2164 0 18.1481 0Z" fill="url(#paint0_radial_764_1160)"/>
<path d="M18.1481 0H5.55556C2.48731 0 0 2.48731 0 5.55556V18.1481C0 21.2164 2.48731 23.7037 5.55556 23.7037H18.1481C21.2164 23.7037 23.7037 21.2164 23.7037 18.1481V5.55556C23.7037 2.48731 21.2164 0 18.1481 0Z" fill="url(#paint1_radial_764_1160)"/>
<path d="M11.8524 2.59277C9.33775 2.59277 9.0221 2.60379 8.03451 2.6487C7.04877 2.69388 6.3759 2.8499 5.78719 3.07888C5.17812 3.31537 4.66154 3.63175 4.14691 4.14657C3.63182 4.66129 3.31543 5.17787 3.07821 5.78666C2.84858 6.37555 2.69238 7.0487 2.64803 8.03398C2.60386 9.02166 2.59229 9.3374 2.59229 11.8521C2.59229 14.3668 2.6034 14.6815 2.64821 15.6691C2.69358 16.6548 2.8496 17.3277 3.0784 17.9164C3.31506 18.5255 3.63145 19.042 4.14627 19.5567C4.6608 20.0718 5.17738 20.3889 5.78599 20.6254C6.37516 20.8543 7.04812 21.0104 8.03367 21.0556C9.02136 21.1005 9.33673 21.1115 11.8513 21.1115C14.3662 21.1115 14.6808 21.1005 15.6684 21.0556C16.6541 21.0104 17.3277 20.8543 17.9169 20.6254C18.5257 20.3889 19.0415 20.0718 19.556 19.5567C20.0711 19.042 20.3874 18.5255 20.6247 17.9167C20.8523 17.3277 21.0086 16.6546 21.0549 15.6693C21.0992 14.6817 21.1108 14.3668 21.1108 11.8521C21.1108 9.3374 21.0992 9.02185 21.0549 8.03416C21.0086 7.04842 20.8523 6.37564 20.6247 5.78694C20.3874 5.17787 20.0711 4.66129 19.556 4.14657C19.041 3.63157 18.5259 3.31518 17.9164 3.07898C17.3261 2.8499 16.6528 2.69379 15.6671 2.6487C14.6794 2.60379 14.365 2.59277 11.8495 2.59277H11.8524ZM11.0217 4.26138C11.2683 4.26101 11.5434 4.26138 11.8524 4.26138C14.3247 4.26138 14.6177 4.27027 15.594 4.31463C16.4967 4.35592 16.9867 4.50675 17.3131 4.63351C17.7452 4.80129 18.0533 5.00194 18.3772 5.32611C18.7013 5.65018 18.9018 5.95879 19.0701 6.39092C19.1968 6.71685 19.3478 7.20685 19.389 8.10963C19.4333 9.08574 19.4429 9.37888 19.4429 11.85C19.4429 14.3211 19.4333 14.6143 19.389 15.5904C19.3477 16.4931 19.1968 16.9831 19.0701 17.3092C18.9023 17.7413 18.7013 18.049 18.3772 18.3729C18.0531 18.6969 17.7454 18.8975 17.3131 19.0654C16.9871 19.1927 16.4967 19.3431 15.594 19.3844C14.6178 19.4288 14.3247 19.4384 11.8524 19.4384C9.37997 19.4384 9.08691 19.4288 8.1109 19.3844C7.20812 19.3428 6.71812 19.1919 6.39145 19.0652C5.95941 18.8973 5.65071 18.6968 5.32664 18.3727C5.00256 18.0486 4.80201 17.7407 4.63377 17.3084C4.50701 16.9824 4.35599 16.4924 4.31488 15.5896C4.27053 14.6135 4.26164 14.3204 4.26164 11.8477C4.26164 9.375 4.27053 9.08342 4.31488 8.10731C4.35617 7.20453 4.50701 6.71453 4.63377 6.38814C4.80164 5.95601 5.00256 5.6474 5.32673 5.32333C5.6509 4.99925 5.95941 4.79861 6.39154 4.63046C6.71793 4.50314 7.20812 4.35268 8.1109 4.3112C8.96506 4.27259 9.29608 4.26101 11.0217 4.25907V4.26138ZM16.795 5.79879C16.1815 5.79879 15.6839 6.29601 15.6839 6.90953C15.6839 7.52296 16.1815 8.02064 16.795 8.02064C17.4084 8.02064 17.9061 7.52296 17.9061 6.90953C17.9061 6.29611 17.4084 5.79842 16.795 5.79842V5.79879ZM11.8524 7.09703C9.22645 7.09703 7.09738 9.22611 7.09738 11.8521C7.09738 14.4781 9.22645 16.6062 11.8524 16.6062C14.4784 16.6062 16.6067 14.4781 16.6067 11.8521C16.6067 9.2262 14.4782 7.09703 11.8522 7.09703H11.8524ZM11.8524 8.76564C13.5569 8.76564 14.9389 10.1474 14.9389 11.8521C14.9389 13.5567 13.5569 14.9386 11.8524 14.9386C10.1478 14.9386 8.76599 13.5567 8.76599 11.8521C8.76599 10.1474 10.1477 8.76564 11.8524 8.76564Z" fill="white"/>
</g>
<defs>
<radialGradient id="paint0_radial_764_1160" cx="0" cy="0" r="1" gradientUnits="userSpaceOnUse" gradientTransform="translate(6.2963 25.5294) rotate(-90) scale(23.4921 21.8495)">
<stop stop-color="#FFDD55"/>
<stop offset="0.1" stop-color="#FFDD55"/>
<stop offset="0.5" stop-color="#FF543E"/>
<stop offset="1" stop-color="#C837AB"/>
</radialGradient>
<radialGradient id="paint1_radial_764_1160" cx="0" cy="0" r="1" gradientUnits="userSpaceOnUse" gradientTransform="translate(-3.97046 1.7075) rotate(78.681) scale(10.5011 43.2859)">
<stop stop-color="#3771C8"/>
<stop offset="0.128" stop-color="#3771C8"/>
<stop offset="1" stop-color="#6600FF" stop-opacity="0"/>
</radialGradient>
<clipPath id="clip0_764_1160">
<rect width="23.7037" height="23.7037" fill="white"/>
</clipPath>
</defs>
</svg>
